<?xml version="1.0" encoding="UTF-8" standalone="no"?>
<svg width="428px" height="139px" viewBox="0 0 428 139" version="1.1" xmlns="http://www.w3.org/2000/svg" xmlns:xlink="http://www.w3.org/1999/xlink">
    <!-- Generator: Sketch 42 (36781) - http://www.bohemiancoding.com/sketch -->
    <title>I SHop - Logo white</title>
    <desc>Created with Sketch.</desc>
    <defs></defs>
    <g id="Symbols" stroke="none" stroke-width="1" fill="none" fill-rule="evenodd">
        <g id="I-SHop---Logo-white" fill-rule="nonzero">
            <g id="Shape">
                <path d="M425.45,60.98 C424.018976,58.1606722 421.913177,55.7388319 419.32,53.93 L350.51,5.93 C340.985834,-0.707997721 328.334166,-0.707997721 318.81,5.93 L250,53.93 C244.858474,57.5014693 241.792251,63.3647534 241.792251,69.625 C241.792251,75.8852466 244.858474,81.7485307 250,85.32 L318.81,133.32 C328.334166,139.957998 340.985834,139.957998 350.51,133.32 L419.32,85.32 C427.129197,79.8581412 429.740608,69.4891802 425.45,60.98 L425.45,60.98 Z" fill="#231F20"></path>
                <path d="M415.63,59.2 L346.82,11.2 C339.504376,6.10027674 329.785624,6.10027674 322.47,11.2 L253.66,59.2 C250.251822,61.5769718 248.220727,65.4698019 248.220727,69.625 C248.220727,73.7801981 250.251822,77.6730282 253.66,80.05 L322.47,128.05 C329.785624,133.149723 339.504376,133.149723 346.82,128.05 L415.63,80.05 C419.038178,77.6730282 421.069273,73.7801981 421.069273,69.625 C421.069273,65.4698019 419.038178,61.5769718 415.63,59.2 L415.63,59.2 Z M376.32,39.61 L358.86,39.61 C357.31242,35.34943 355.460996,31.2054472 353.32,27.21 C352.06,24.87 350.83,22.82 349.68,21.05 L376.32,39.61 Z M337.86,16.37 C341.66,20.1 347.57,28.44 351.99,39.61 L337.86,39.61 L337.86,16.37 Z M331.44,16.37 L331.44,39.61 L317.32,39.61 C321.72,28.44 327.63,20.1 331.43,16.37 L331.44,16.37 Z M319.62,21.06 C318.47,22.84 317.24,24.88 315.98,27.22 C313.83217,31.2148819 311.974056,35.3588776 310.42,39.62 L292.99,39.62 L319.62,21.06 Z M292.99,99.64 L310.42,99.64 C311.973992,103.901148 313.832108,108.045148 315.98,112.04 C317.24,114.38 318.47,116.43 319.62,118.21 L292.99,99.64 Z M331.43,122.88 C327.63,119.15 321.71,110.81 317.29,99.64 L331.43,99.64 L331.43,122.88 Z M337.85,122.88 L337.85,99.64 L351.98,99.64 C347.57,110.81 341.66,119.14 337.86,122.87 L337.85,122.88 Z M349.64,118.22 C350.8,116.44 352.03,114.38 353.29,112.04 C355.437367,108.04489 357.295466,103.900928 358.85,99.64 L376.32,99.64 L349.64,118.22 Z" fill="#FFFFFF"></path>
                <path d="M411.96,64.47 L385.52,46.04 L283.78,46.04 L257.32,64.47 C255.624302,65.6450582 254.612625,67.5769549 254.612625,69.64 C254.612625,71.7030451 255.624302,73.6349418 257.32,74.81 L283.77,93.24 L385.52,93.24 L411.96,74.81 C413.655698,73.6349418 414.667375,71.7030451 414.667375,69.64 C414.667375,67.5769549 413.655698,65.6450582 411.96,64.47 L411.96,64.47 Z M327.26,85.33 L316.92,85.33 L301.56,65.75 L301.56,85.32 L292.2,85.32 L292.2,53.92 L304.44,53.92 L317.96,71.67 L317.96,53.92 L327.27,53.92 L327.27,85.32 L327.26,85.33 Z M372.45,85.33 L360.83,85.33 L355.6,67.33 L350.36,85.33 L339.36,85.33 L330.73,53.93 L341.5,53.93 L346.03,72.48 L351.03,53.93 L361.03,53.93 L366.32,73.32 L371.32,53.93 L381.2,53.93 L372.45,85.33 Z" fill="#E11A2C"></path>
                <path d="M19.17,25.39 C15.41,25.69 6.47,26.76 4.82,28.05 C3.17,29.34 4.53,33.57 6.32,33.73 C8.11,33.89 12.21,32.64 14.94,32.12 C14.84,31.92 10.45,91.54 9.21,93.81 C6.27,94 1.73,93.81 1.07,94.59 C0.41,95.37 -0.93,99.39 1.07,99.83 C3.86,100.42 15.39,99.01 19.02,98.57 C23.02,98.09 29.56,97.79 30.33,96.86 C30.84,96.25 32.01,93.75 31.33,92.95 C30.33,91.71 28.5,92.28 26.65,92.46 C25.27,92.6 23.48,92.85 21.87,92.98 C21.87,92.98 23.47,30.9 23.51,30.52 C24.99,30.23 29.51,29.39 32.62,29.05 C35.27,28.76 35.27,25.37 35.04,25.05 C34.32,23.81 23.51,25.03 19.17,25.39 Z" fill="#FFFFFF"></path>
                <path d="M221.67,53.47 C218.03,42.81 202.84,48.81 194.96,56.81 C195.046277,54.7715197 194.912166,52.7296828 194.56,50.72 C193.36,46.81 187.09,45.83 185.79,46.96 C184.85,47.78 184.95,48.87 184.42,54.45 L184.42,54.45 C183.63,59.01 174.55,60.18 174.55,60.18 C174.55,60.18 172.11,49.88 162.08,49.06 C160.03,48.89 151.54,49.33 143.84,60.58 C138.93,67.75 138.79,76.46 138.79,76.46 C137.39,77.22 128.44,88.69 126.92,90.63 C124.26,94 123.09,95.69 123.09,95.69 C121.22,95.27 126.09,71.58 127.27,67.45 C128.45,63.32 129.43,53.82 127.13,52 C125.31,50.6 123.13,49.49 120.92,50.17 C111.11,53.17 104.67,64.85 103.77,67.93 C103.38,66.36 104.5,17.77 103.35,15.49 C102.49,13.79 95.98,10.65 94.96,12.08 C93.94,13.51 93.42,40.08 91.24,64.42 C87.55,65.42 81.8,67.08 77.15,68.68 C77.15,68.68 66.69,54.78 64.88,49.31 C64.12,47 65.46,45.67 67.2,45.67 C70.2,45.67 71.2,49.9 72.32,50.49 C73.44,51.08 79.81,47.89 74.32,42.49 C69.58,37.81 63.32,39.67 61.07,41.12 C55.5742476,44.6999081 53.8205659,51.9426133 57.07,57.64 C57.61,58.64 64.15,73.28 64.15,73.28 C64.15,73.28 54.98,76.81 52.02,80.04 C47.87,84.52 48.74,90.95 51.28,94.7 C53.54,98.02 57.57,101.44 65.97,100.33 C69.28,99.89 79.4,98.76 80.97,83.67 C81.42,79.39 79.27,73.73 79.27,73.73 C80.37,73.19 86.88,70.73 90.76,69.26 C90.22,74.65 89.58,79.83 88.84,84.47 C88.6780228,86.339871 89.1576879,88.2091542 90.2,89.77 C91.2,91.29 93.62,92.77 96.36,94.55 C99.57,96.55 106.1,76.65 109.36,69.76 C113.14,61.76 116.94,55.57 118.45,56.23 C119.96,56.89 113.6,72.15 112.86,75.38 C111.42,81.61 107.98,91.17 110.67,97.38 C111.67,99.8 118.45,104.59 120.21,105.58 C121.356151,106.233138 122.787437,106.105558 123.8,105.26 C125.09,103.97 139.04,82.4 139.93,82.14 C139.93,82.14 140.29,85.75 144.61,90.71 C148.17,94.78 168.29,104.86 174.61,81.23 C175.790409,76.6633253 176.182709,71.9286759 175.77,67.23 C178.464185,66.726477 181.103199,65.9629043 183.65,64.95 L183.59,65.9 C182.88,72.64 178.65,107.97 178.99,110.03 C179.85,115.27 185.31,118.9 186.86,117.79 C188.41,116.68 191.25,89.79 192.44,85.79 C193.610501,87.2057679 195.078659,88.346151 196.74,89.13 C207.44,94.7 217.42,80.57 219.86,74.8 C222.05,69.65 224.14,60.73 221.67,53.47 Z M56.03,92.61 C54.09,90.69 53.48,84.61 59.91,81.45 C60.57,81.13 63.71,79.55 65.65,78.86 C66.3035188,81.136273 66.6400216,83.4917926 66.65,85.86 C66.71,96.23 58.01,94.58 56.03,92.61 Z M164.03,58.13 C168.67,54.59 170.08,59.37 170.54,60.92 C168.7,61.37 159.5,61.59 164.04,58.13 L164.03,58.13 Z M170.54,77.56 C168.89,85.35 161.83,92.69 154.85,87.18 C151.03,84.18 150.35,77.56 151.85,72.64 C152.830826,69.2553223 154.789409,66.2356945 157.48,63.96 C157.48,63.96 161.11,68.82 171.48,67.88 C171.461054,71.128034 171.149798,74.367771 170.55,77.56 L170.54,77.56 Z M203.46,82.81 C200.89,84.01 197.07,84.3 194.99,83.5 C194.204666,83.2224708 193.565807,82.6377524 193.22,81.88 C193.119823,81.3623009 193.140355,80.8284752 193.28,80.32 C193.64,77.97 194.92,68.41 195.82,65.12 C196.98,60.89 200.45,55.69 206.05,54.26 C210.9,53.02 211.65,58.73 211.65,64.01 C211.65,71.13 208.57,80.47 203.46,82.81 Z" fill="#FFFFFF"></path>
            </g>
        </g>
    </g>
</svg>